HIERARCHY
ROOT hip
{
	OFFSET 0.000000 0.000000 0.000000 
	CHANNELS 6 Xposition Yposition Zposition Xrotation Zrotation Yrotation
	JOINT abdomen
	{
		OFFSET 0.000000 3.402643 0.000000 
		CHANNELS 3 Xrotation Zrotation Yrotation
		JOINT chest
		{
			OFFSET 0.000000 8.438565 -0.680529 
			CHANNELS 3 Xrotation Zrotation Yrotation
			JOINT neck
			{
				OFFSET 0.000000 10.207942 -0.272212 
				CHANNELS 3 Xrotation Zrotation Yrotation
				JOINT head
				{
					OFFSET 0.000000 3.130431 0.000000 
					CHANNELS 3 Xrotation Zrotation Yrotation
					End Site
					{
						OFFSET 0.000000 3.130435 0.000000 
					}
				}
			}
			JOINT lCollar
			{
				OFFSET 3.470700 6.669187 -0.816635 
				CHANNELS 3 Yrotation Zrotation Xrotation
				JOINT lShldr
				{
					OFFSET 3.198488 0.000000 0.000000 
					CHANNELS 3 Zrotation Yrotation Xrotation
					JOINT lForeArm
					{
						OFFSET 10.139888 0.000000 0.000000 
						CHANNELS 3 Yrotation Zrotation Xrotation
						JOINT lHand
						{
							OFFSET 8.370511 0.000000 0.000000 
							CHANNELS 3 Zrotation Yrotation Xrotation
							End Site
							{
								OFFSET 4.083176 0.000000 0.000000 
							}
						}
					}
				}
			}
			JOINT rCollar
			{
				OFFSET -3.470700 6.669187 -0.816635 
				CHANNELS 3 Yrotation Zrotation Xrotation
				JOINT rShldr
				{
					OFFSET -3.198488 0.000000 0.000000 
					CHANNELS 3 Zrotation Yrotation Xrotation
					JOINT rForeArm
					{
						OFFSET -10.139888 0.000000 0.000000 
						CHANNELS 3 Yrotation Zrotation Xrotation
						JOINT rHand
						{
							OFFSET -8.370511 0.000000 0.000000 
							CHANNELS 3 Zrotation Yrotation Xrotation
							End Site
							{
								OFFSET -4.083176 0.000000 0.000000 
							}
						}
					}
				}
			}
		}
	}
	JOINT lThigh
	{
		OFFSET 5.308129 -1.633274 1.361059 
		CHANNELS 3 Xrotation Zrotation Yrotation
		JOINT lShin
		{
			OFFSET -2.041588 -20.007561 0.000000 
			CHANNELS 3 Xrotation Zrotation Yrotation
			JOINT lFoot
			{
				OFFSET 0.000000 -19.190928 -1.224953 
				CHANNELS 3 Xrotation Yrotation Zrotation
				End Site
				{
					OFFSET 0.000000 -2.449906 4.627600 
				}
			}
		}
	}
	JOINT rThigh
	{
		OFFSET -5.308129 -1.633274 1.361059 
		CHANNELS 3 Xrotation Zrotation Yrotation
		JOINT rShin
		{
			OFFSET 2.041588 -20.007561 0.000000 
			CHANNELS 3 Xrotation Zrotation Yrotation
			JOINT rFoot
			{
				OFFSET 0.000000 -19.190928 -1.224953 
				CHANNELS 3 Xrotation Yrotation Zrotation
				End Site
				{
					OFFSET 0.000000 -2.449906 4.627600 
				}
			}
		}
	}
}
MOTION
Frames: 6
Frame Time: 0.016667
0.560717 35.749619 -0.545298 9.650770 8.984500 -10.118300 -13.022700 2.227650 0.756979 12.360700 3.131810 0.291488 -2.525510 5.356190 -13.635200 8.168270 6.751170 -5.583980 2.000000 -2.000000 0.000000 -82.406303 4.898460 132.033005 58.428200 -0.286430 0.116534 0.050817 -0.044109 -152.878998 -2.000000 2.000000 0.000000 53.768501 16.565399 132.673996 -65.078697 0.272458 0.123993 1.227250 -1.200550 -116.922997 -49.469143 -0.905299 -7.179191 66.519676 0.449451 4.300993 -27.529196 -9.202493 -3.394747 -50.129044 -18.725864 -14.976713 84.466797 1.238144 -4.861115 -28.405939 -8.418646 -3.031136 
0.261370 35.854877 -0.569536 9.591210 8.976420 -10.246200 -12.984000 2.249620 0.733336 12.458200 3.171250 0.281566 -2.306960 5.077840 -13.352900 8.235960 6.643310 -5.476360 2.000000 -2.000000 0.000000 -82.522797 4.790370 131.613998 58.037601 -0.287222 0.116043 0.050345 -0.042424 -152.253998 -2.000000 2.000000 0.000000 53.700401 16.565100 132.820999 -65.039597 0.272543 0.123954 1.225630 -1.204250 -116.697998 -49.029549 -0.678587 -7.473542 65.959663 0.510064 4.269064 -27.318386 -8.733251 -3.061522 -49.838966 -18.285858 -15.157855 84.084160 1.211141 -4.860994 -28.377621 -8.339583 -2.972727 
-0.054589 35.961376 -0.607676 9.547370 8.813740 -10.613100 -13.013600 2.320210 0.755805 12.448000 3.229180 0.292308 -2.095710 5.018870 -12.993000 8.294840 6.632940 -5.314060 2.000000 -2.000000 0.000000 -82.678398 4.848410 131.261993 57.764198 -0.287775 0.115697 0.050159 -0.041738 -152.000000 -2.000000 2.000000 0.000000 53.280998 16.789400 133.026001 -64.590401 0.273513 0.123497 1.215650 -1.206130 -116.639000 -48.674461 -0.143626 -8.269177 65.869797 0.554015 4.252736 -26.341532 -10.358375 -3.593462 -49.458828 -17.467150 -15.369541 83.525627 1.177170 -4.871341 -28.413511 -8.240401 -2.930025 
-0.370546 36.067760 -0.645817 9.513270 8.641130 -10.978300 -13.033500 2.390860 0.778546 12.437700 3.287110 0.303031 -1.883660 4.949580 -12.643000 8.363440 6.612730 -5.151380 2.000000 -2.000000 0.000000 -82.834000 4.906470 130.919998 57.500500 -0.288306 0.115360 0.049968 -0.041024 -151.735992 -2.000000 2.000000 0.000000 52.851799 17.023500 133.225006 -64.141197 0.274479 0.123034 1.224390 -1.204060 -116.589996 -48.354710 0.389971 -9.059761 65.800247 0.584099 4.245980 -25.367590 -12.025050 -4.108091 -49.089882 -16.641159 -15.546948 82.974998 1.127773 -4.845096 -28.442060 -8.174551 -2.886713 
-0.690162 36.160664 -0.659438 9.338290 8.356180 -11.393600 -12.994400 2.489400 0.876436 12.496400 3.287580 0.355219 -1.624800 4.942790 -12.396500 8.451920 6.611770 -5.033840 2.000000 -2.000000 0.000000 -82.814400 4.984530 130.880997 57.158699 -0.288993 0.114920 0.050003 -0.041157 -151.785004 -2.000000 2.000000 0.000000 52.803200 17.042801 133.332001 -64.082603 0.274605 0.122973 1.223330 -1.206480 -116.444000 -47.771664 0.953214 -9.677156 65.612015 0.638109 4.220432 -25.039349 -12.254912 -4.091668 -48.391464 -15.823263 -15.989058 82.219803 1.085817 -4.839283 -28.453587 -8.071413 -2.884356 
-1.009783 36.253681 -0.673062 9.173440 8.061030 -11.817100 -12.955300 2.597480 0.972218 12.564900 3.288140 0.407968 -1.356830 4.936440 -12.138100 8.530450 6.601170 -4.918180 2.000000 -2.000000 0.000000 -82.794800 5.072350 130.832001 56.826698 -0.289657 0.114488 0.050038 -0.041289 -151.834000 -2.000000 2.000000 0.000000 52.754501 17.062201 133.429993 -64.014198 0.274752 0.122901 1.212480 -1.208800 -116.296997 -47.202972 1.528474 -10.293308 65.433945 0.679340 4.196081 -24.746319 -12.497005 -4.074131 -47.734734 -15.001088 -16.418707 81.621292 1.023461 -4.843295 -28.572828 -7.972844 -2.814301 
